<svg width="36" height="36" viewBox="0 0 36 36" fill="none" xmlns="http://www.w3.org/2000/svg">
<path d="M27 3L31.5 9V30C31.5 30.7956 31.1839 31.5587 30.6213 32.1213C30.0587 32.6839 29.2956 33 28.5 33H7.5C6.70435 33 5.94129 32.6839 5.37868 32.1213C4.81607 31.5587 4.5 30.7956 4.5 30V9L9 3H27Z" stroke="#081F2B" stroke-width="1.5" stroke-linecap="round" stroke-linejoin="round"/>
<path d="M12 15C12 16.5913 12.6321 18.1174 13.7574 19.2426C14.8826 20.3679 16.4087 21 18 21C19.5913 21 21.1174 20.3679 22.2426 19.2426C23.3679 18.1174 24 16.5913 24 15" stroke="#081F2B" stroke-width="1.5" stroke-linecap="round" stroke-linejoin="round"/>
<path d="M31.5 9H4.5" stroke="#081F2B" stroke-width="1.5" stroke-linecap="round" stroke-linejoin="round"/>
</svg>
