<svg width="16" height="16" viewBox="0 0 16 16" fill="none" xmlns="http://www.w3.org/2000/svg">
<g id="ic:outline-nightlight">
<g id="Vector">
<path d="M4.22646 3.99693C4.38673 3.83665 4.55644 3.6858 4.73557 3.55381C4.85342 5.47243 5.66424 7.32033 7.05488 8.71098C8.44553 10.1016 10.2934 10.9124 12.212 11.0303C12.0801 11.2094 11.9292 11.3791 11.7689 11.5394C9.69003 13.6183 6.30535 13.6183 4.22646 11.5394C2.14756 9.46051 2.14756 6.07583 4.22646 3.99693ZM3.28365 3.05412C0.681493 5.65628 0.681493 9.88006 3.28365 12.4822C5.8858 15.0844 10.1096 15.0844 12.7117 12.4822C13.5697 11.6243 14.1401 10.5825 14.4324 9.48879C12.2073 10.0828 9.74189 9.51236 7.99769 7.76817C6.25349 6.02397 5.68309 3.55853 6.27706 1.3335C5.14515 1.63343 4.11252 2.22698 3.28365 3.05412Z" fill="#62687F"/>
</g>
</g>
</svg>
