<svg width="20" height="20" viewBox="0 0 20 20" fill="none" xmlns="http://www.w3.org/2000/svg">
<g id="icons8-ok 4">
<path id="Vector" opacity="0.3" d="M10 2.5C9.01509 2.5 8.03982 2.69399 7.12987 3.0709C6.21993 3.44781 5.39314 4.00026 4.6967 4.6967C4.00026 5.39314 3.44781 6.21993 3.0709 7.12987C2.69399 8.03982 2.5 9.01509 2.5 10C2.5 10.9849 2.69399 11.9602 3.0709 12.8701C3.44781 13.7801 4.00026 14.6069 4.6967 15.3033C5.39314 15.9997 6.21993 16.5522 7.12987 16.9291C8.03982 17.306 9.01509 17.5 10 17.5C10.9849 17.5 11.9602 17.306 12.8701 16.9291C13.7801 16.5522 14.6069 15.9997 15.3033 15.3033C15.9997 14.6069 16.5522 13.7801 16.9291 12.8701C17.306 11.9602 17.5 10.9849 17.5 10C17.5 9.01509 17.306 8.03982 16.9291 7.12987C16.5522 6.21993 15.9997 5.39314 15.3033 4.6967C14.6069 4.00026 13.7801 3.44781 12.8701 3.0709C11.9602 2.69399 10.9849 2.5 10 2.5Z" fill="#0FBE00"/>
<path id="Vector_2" d="M10.0003 18.3337C5.41699 18.3337 1.66699 14.5837 1.66699 10.0003C1.66699 5.41699 5.41699 1.66699 10.0003 1.66699C14.5837 1.66699 18.3337 5.41699 18.3337 10.0003C18.3337 14.5837 14.5837 18.3337 10.0003 18.3337ZM10.0003 3.33366C6.33366 3.33366 3.33366 6.33366 3.33366 10.0003C3.33366 13.667 6.33366 16.667 10.0003 16.667C13.667 16.667 16.667 13.667 16.667 10.0003C16.667 6.33366 13.667 3.33366 10.0003 3.33366Z" fill="#0FBE00"/>
<path id="Vector_3" d="M8.33333 14.5003L5.25 11.417L6.41667 10.2503L8.33333 12.167L13.5833 6.91699L14.75 8.08366L8.33333 14.5003Z" fill="#0FBE00"/>
</g>
</svg>
