<svg width="20" height="20" viewBox="0 0 20 20" fill="none" xmlns="http://www.w3.org/2000/svg">
<g id="icons8-error 3">
<path id="Vector" opacity="0.3" d="M17.8329 15.833L10.4995 3.58301C10.2495 3.24967 9.74953 3.24967 9.49953 3.58301L2.16619 15.833C1.91619 16.2497 2.24953 16.6663 2.66619 16.6663H17.3329C17.7495 16.6663 18.0829 16.1663 17.8329 15.833Z" fill="#D24747"/>
<path id="Vector_2" d="M17.3337 17.5H2.66699C2.16699 17.5 1.66699 17.25 1.41699 16.75C1.16699 16.25 1.16699 15.75 1.41699 15.3333L8.75033 3.16667C9.08366 2.75 9.50033 2.5 10.0003 2.5C10.5003 2.5 10.917 2.75 11.167 3.16667L18.5003 15.3333C18.7503 15.75 18.7503 16.3333 18.5003 16.75C18.2503 17.1667 17.8337 17.5 17.3337 17.5ZM3.16699 15.8333H16.917L10.0003 4.41667L3.16699 15.8333Z" fill="#D24747"/>
<path id="Vector_3" d="M10.8337 15H9.16699V13.3333H10.8337V15ZM10.8337 11.6667H9.16699V7.5H10.8337V11.6667Z" fill="#D24747"/>
</g>
</svg>
